<?xml version="1.0" encoding="UTF-8"?>
<svg version="1.1" xmlns="http://www.w3.org/2000/svg" width="477" height="144">
<path d="M0 0 C1.71484375 1.21875 1.71484375 1.21875 3 3 C3.14453125 5.34765625 3.14453125 5.34765625 2.8125 8.0625 C2.64234375 9.5165625 2.64234375 9.5165625 2.46875 11 C1.88859521 14.71299067 1.11147671 18.35694875 0.20703125 22.00390625 C0.13871094 22.66261719 0.07039063 23.32132813 0 24 C0.99 24.99 0.99 24.99 2 26 C4.02001762 19.79181252 5.50902742 13.71090185 6.47265625 7.25 C7 5 7 5 9 3 C12.0625 2.8125 12.0625 2.8125 15 3 C15.33 3.33 15.66 3.66 16 4 C15.90982004 6.19050021 15.75333792 8.378466 15.5625 10.5625 C15.46066406 11.76003906 15.35882813 12.95757812 15.25390625 14.19140625 C15.17011719 15.11824219 15.08632813 16.04507813 15 17 C15.61488281 16.82210937 16.22976563 16.64421875 16.86328125 16.4609375 C19 16 19 16 21.1875 16.625 C23 18 23 18 23.75 20.625 C23.8325 21.40875 23.915 22.1925 24 23 C24.391875 22.030625 24.78375 21.06125 25.1875 20.0625 C27 17 27 17 29.6875 16.125 C30.450625 16.08375 31.21375 16.0425 32 16 C32.99 17.65 33.98 19.3 35 21 C35.33 19.68 35.66 18.36 36 17 C34.02 16.01 32.04 15.02 30 14 C30 12.68 30 11.36 30 10 C34.455 9.505 34.455 9.505 39 9 C39.33 7.35 39.66 5.7 40 4 C41.98 3.34 43.96 2.68 46 2 C48.1385485 4.1385485 48.42655063 5.13275314 49 8 C50.65 8.33 52.3 8.66 54 9 C54.33 7.68 54.66 6.36 55 5 C56.98 5 58.96 5 61 5 C61.33 6.65 61.66 8.3 62 10 C57.30021142 14.82029598 57.30021142 14.82029598 53.59765625 15.33203125 C51.37934668 15.31450906 49.20688457 15.22068846 47 15 C43.89298641 23.46253383 43.89298641 23.46253383 41 32 C47.62848093 29.25718031 49.38241616 23.21842252 52 17 C53.98 17 55.96 17 58 17 C59.1171875 18.671875 59.1171875 18.671875 60 21 C59.3203125 23.578125 59.3203125 23.578125 58.125 26.25 C57.73570312 27.14203125 57.34640625 28.0340625 56.9453125 28.953125 C56.47738281 29.96632813 56.47738281 29.96632813 56 31 C59.28684994 28.80876671 59.76955373 27.3714277 61.1796875 23.81640625 C62.688497 20.47547093 64.70162296 17.64918852 68 16 C69.875 15.83203125 69.875 15.83203125 72 15.8125 C72.70125 15.79832031 73.4025 15.78414062 74.125 15.76953125 C76 16 76 16 78 18 C78.3125 21.5 78.3125 21.5 78 25 C74.5647952 27.29013653 73.014669 27.17842973 69 27 C67.98888907 30.04913228 67.98888907 30.04913228 69 33 C72.42778386 32.71435135 73.72242347 32.29390456 76.125 29.75 C77.99692648 27.1072021 77.99692648 27.1072021 79.3125 24.5625 C81.66166039 20.99525644 84.39491246 18.30388822 88 16 C91.25 15.375 91.25 15.375 94 16 C97.47300938 18.9939736 97.57769703 22.60804909 98 27 C98.5775 26.690625 99.155 26.38125 99.75 26.0625 C101.84294184 25.07416636 103.74535275 24.4831387 106 24 C106.75 25.625 106.75 25.625 107 28 C105.1875 31.25 105.1875 31.25 103 34 C102.34 34 101.68 34 101 34 C100.67 34.99 100.34 35.98 100 37 C96.73718826 39.17520782 95.7659092 39.28244319 92 39 C91.01 38.67 90.02 38.34 89 38 C86.94969605 38.20255019 84.96326966 38.56924781 82.9375 38.94140625 C81 39 81 39 78 37 C77.175 37.515625 76.35 38.03125 75.5 38.5625 C70.92258968 40.44250781 68.81083949 40.00872441 64 39 C61.5 37.9375 61.5 37.9375 60 37 C59.01 37.66 58.02 38.32 57 39 C50.54716981 38.54716981 50.54716981 38.54716981 48 36 C47.608125 36.474375 47.21625 36.94875 46.8125 37.4375 C44.48241325 39.44619548 43.06927932 39.85384384 40 40 C37.3125 39 37.3125 39 35 37 C33.6875 33.3125 33.6875 33.3125 33 30 C30.99432582 33.00851127 30.46258021 34.77575553 29.74609375 38.25390625 C29.53146484 39.27291016 29.31683594 40.29191406 29.09570312 41.34179688 C28.87849609 42.40462891 28.66128906 43.46746094 28.4375 44.5625 C28.00103917 46.66845533 27.56234803 48.77395005 27.12109375 50.87890625 C26.9295874 51.8129126 26.73808105 52.74691895 26.54077148 53.70922852 C26 56 26 56 25 58 C23.00045254 58.04254356 20.99958364 58.04080783 19 58 C18 57 18 57 17.75 54.0625 C17.79105099 49.13638127 19.43657514 44.62513188 21 40 C19.72125 39.79375 18.4425 39.5875 17.125 39.375 C14.9140625 38.84375 14.9140625 38.84375 13 38 C11.5 34.875 11.5 34.875 11 32 C10.608125 33.134375 10.21625 34.26875 9.8125 35.4375 C8 39 8 39 5.4375 40.0625 C3 40 3 40 1 38 C0.59952556 35.67724823 0.2602896 33.34260643 0 31 C-1.39156484 32.16277032 -1.39156484 32.16277032 -1.09765625 35.37890625 C-1.09098369 36.77347077 -1.07902532 38.16801743 -1.0625 39.5625 C-1.05798828 40.27341797 -1.05347656 40.98433594 -1.04882812 41.71679688 C-1.03700864 43.47790013 -1.01907263 45.23896036 -1 47 C-3.31 47.99 -5.62 48.98 -8 50 C-9.484375 48.90625 -9.484375 48.90625 -11 47 C-11.328125 43.96875 -11.328125 43.96875 -11.25 40.5 C-11.23453125 39.3553125 -11.2190625 38.210625 -11.203125 37.03125 C-11 34 -11 34 -10 31 C-11.98 31 -13.96 31 -16 31 C-16.18175781 31.83144531 -16.36351562 32.66289063 -16.55078125 33.51953125 C-16.80214844 34.60621094 -17.05351562 35.69289062 -17.3125 36.8125 C-17.55613281 37.89144531 -17.79976563 38.97039062 -18.05078125 40.08203125 C-18.99540838 42.98588501 -19.49646427 44.29948516 -22 46 C-24.72507798 46.39078556 -27.23121956 46.13616953 -30 46 C-30.33 45.34 -30.66 44.68 -31 44 C-29.5625 41.375 -29.5625 41.375 -28 39 C-28.886875 39.268125 -29.77375 39.53625 -30.6875 39.8125 C-34 40 -34 40 -36.8125 37.625 C-37.8953125 36.325625 -37.8953125 36.325625 -39 35 C-39.33 34.67 -39.66 34.34 -40 34 C-40.2784375 34.9590625 -40.2784375 34.9590625 -40.5625 35.9375 C-42 38 -42 38 -45.5 38.8125 C-49 39 -49 39 -51 38 C-52.40787958 38.32688039 -53.80292935 38.71034373 -55.1875 39.125 C-58.6879282 39.99449739 -60.48651375 40.13087889 -63.6875 38.4375 C-64.780625 37.963125 -65.87375 37.48875 -67 37 C-70.13343033 38.31668061 -70.13343033 38.31668061 -73 40 C-75.625 40.0625 -75.625 40.0625 -78 39 C-80.3125 35.9375 -80.3125 35.9375 -82 33 C-83.32 34.98 -84.64 36.96 -86 39 C-88.97 38.505 -88.97 38.505 -92 38 C-92 36.35 -92 34.7 -92 33 C-91.34 33 -90.68 33 -90 33 C-90 30.69 -90 28.38 -90 26 C-90.33773437 26.77085938 -90.67546875 27.54171875 -91.0234375 28.3359375 C-91.46945313 29.33882812 -91.91546875 30.34171875 -92.375 31.375 C-92.81585938 32.37273437 -93.25671875 33.37046875 -93.7109375 34.3984375 C-95 37 -95 37 -97 39 C-100.0913386 39.23779528 -102.03104944 38.98965019 -105 38 C-107.13435613 38.42721223 -107.13435613 38.42721223 -109.375 39.125 C-112.54281372 39.87067044 -113.70761353 40.09534342 -116.875 39.0625 C-119.83496048 36.18959718 -120.95023786 34.00221817 -122 30 C-121.4263906 25.207586 -119.18207709 21.80007412 -115.75 18.5 C-112.94090063 16.30520474 -111.9064208 15.98772732 -108.1875 15.5 C-105 16 -105 16 -103 18 C-102.93094943 21.59062963 -103.14851523 24.02292123 -105.5625 26.79296875 C-110.3591152 31 -110.3591152 31 -113 31 C-112.67 31.66 -112.34 32.32 -112 33 C-107.21620078 32.08529553 -104.18595163 29.60920607 -101 26 C-99.63560692 23.34277293 -98.84625711 20.88723013 -98 18 C-96.824375 18.020625 -95.64875 18.04125 -94.4375 18.0625 C-91.51506646 18.07807247 -89.0486304 17.84655329 -86.125 17.375 C-84.578125 17.189375 -84.578125 17.189375 -83 17 C-82.34 17.66 -81.68 18.32 -81 19 C-80.46375 18.649375 -79.9275 18.29875 -79.375 17.9375 C-76.22486274 16.69402477 -74.23097953 17.13840546 -71 18 C-69.73762269 20.52475462 -69.90143596 22.31200466 -69.9375 25.125 C-69.94652344 26.03507812 -69.95554687 26.94515625 -69.96484375 27.8828125 C-69.97644531 28.58148438 -69.98804688 29.28015625 -70 30 C-69.32904297 28.98679687 -69.32904297 28.98679687 -68.64453125 27.953125 C-62.05483239 18.23015782 -62.05483239 18.23015782 -58 16 C-54.3125 15.625 -54.3125 15.625 -51 16 C-50.01 16.99 -50.01 16.99 -49 18 C-49.33276451 24.10068259 -49.33276451 24.10068259 -51.4375 26.9375 C-53 28 -53 28 -55 28 C-55 28.66 -55 29.32 -55 30 C-56.32 30.33 -57.64 30.66 -59 31 C-58.505 31.99 -58.505 31.99 -58 33 C-55.25397936 32.91923469 -53.4956463 32.42778275 -51.40234375 30.62109375 C-47.76928433 26.63097689 -46.0756974 23.27091726 -45 18 C-39.96390209 17.29317924 -35.09889842 16.69406609 -30 17 C-28 19 -28 19 -27.8046875 20.9453125 C-27.86979167 22.96354167 -27.93489583 24.98177083 -28 27 C-23.47238585 24.80044121 -22.13102528 22.87862404 -20.4375 18.1875 C-16.89342576 9.06946379 -11.39303632 -1.97187167 0 0 Z M-6 7 C-7.87543354 10.86763446 -7.87543354 10.86763446 -7 15 C-5.12456646 11.13236554 -5.12456646 11.13236554 -6 7 Z M-10 13 C-11.32 16.63 -12.64 20.26 -14 24 C-12.02 24 -10.04 24 -8 24 C-6.73735399 19.70700357 -7.37049588 17.12168689 -9 13 C-9.33 13 -9.66 13 -10 13 Z M13 20 C14 23 14 23 14 23 Z M12 23 C13 26 13 26 13 26 Z M22 23 C20.31369881 26.51033129 20.31369881 26.51033129 20.375 30.3125 C20.58125 30.869375 20.7875 31.42625 21 32 C22.71815438 29.74832154 22.71815438 29.74832154 24 27 C23.30859649 24.69712207 23.30859649 24.69712207 22 23 Z M-38 26 C-38 29 -38 29 -38 29 Z M11 26 C12 29 12 29 12 29 Z M-80 27 C-80.66 28.32 -81.32 29.64 -82 31 C-81.01 30.34 -80.02 29.68 -79 29 C-79.33 28.34 -79.66 27.68 -80 27 Z M88 27 C86.96986723 28.64821244 85.96885372 30.31503702 85 32 C85.66 32 86.32 32 87 32 C87.66 30.35 88.32 28.7 89 27 C88.67 27 88.34 27 88 27 Z M97 28 C97 31 97 31 97 31 Z M-39 29 C-38 31 -38 31 -38 31 Z " fill="#020203" transform="translate(326,43)"/>
<path d="M0 0 C1.2684375 0.9590625 1.2684375 0.9590625 2.5625 1.9375 C3.5525 2.5975 4.5425 3.2575 5.5625 3.9375 C5.5625 4.5975 5.5625 5.2575 5.5625 5.9375 C6.2225 5.9375 6.8825 5.9375 7.5625 5.9375 C14.4215342 15.03317579 16.41503816 23.94563521 15.35546875 35.12109375 C13.93751662 43.86253493 8.90823085 51.37478128 2.125 56.9375 C-6.1413928 62.75459123 -15.22413935 64.93881556 -25.3359375 63.53515625 C-34.77353167 61.30132794 -43.12862171 56.19215832 -48.4375 47.9375 C-53.27996658 38.03527668 -55.3830515 27.97970781 -51.8125 17.3125 C-47.74022848 7.30795751 -41.95908725 1.99234264 -32.4375 -3.0625 C-22.28044585 -7.30999537 -9.22537812 -6.05202938 0 0 Z M-36.3125 15.0625 C-37.73538457 17.0222639 -37.73538457 17.0222639 -37.1875 20.0625 C-36.72816476 22.81540841 -36.72816476 22.81540841 -35.4375 23.9375 C-32.47932893 24.18755386 -32.47932893 24.18755386 -29.4375 23.9375 C-27.12186913 22.05249729 -27.12186913 22.05249729 -27.1875 18.9375 C-27.12186913 15.82250271 -27.12186913 15.82250271 -29.4375 13.9375 C-32.27136167 13.5741844 -33.84272151 13.5806329 -36.3125 15.0625 Z " fill="#54AAC0" transform="translate(128.4375,41.0625)"/>
<path d="M0 0 C2.48910041 2.18693344 4.82780417 4.44886059 7.13671875 6.82421875 C7.7709375 7.4378125 8.40515625 8.05140625 9.05859375 8.68359375 C15.93400626 15.80238369 22.45724698 27.39609513 23.3671875 37.34375 C23.35300781 38.10042969 23.33882813 38.85710937 23.32421875 39.63671875 C23.31777344 40.40628906 23.31132812 41.17585938 23.3046875 41.96875 C23.13671875 43.82421875 23.13671875 43.82421875 22.13671875 44.82421875 C18.99848425 45.07388442 15.84622262 45.00943666 12.69921875 45.01171875 C11.81427734 45.02396484 10.92933594 45.03621094 10.01757812 45.04882812 C9.17130859 45.05076172 8.32503906 45.05269531 7.453125 45.0546875 C6.67396729 45.05879639 5.89480957 45.06290527 5.09204102 45.06713867 C3.13671875 44.82421875 3.13671875 44.82421875 1.13671875 42.82421875 C0.66068397 40.6907702 0.25487968 38.54140419 -0.11328125 36.38671875 C-1.5398816 29.33337488 -3.9833354 23.84697652 -7.86328125 17.82421875 C-8.44078125 16.91671875 -9.01828125 16.00921875 -9.61328125 15.07421875 C-17.12093749 7.56656251 -27.13847874 1.7369679 -37.86328125 0.82421875 C-38.48074219 0.76105469 -39.09820312 0.69789062 -39.734375 0.6328125 C-49.98864719 0.04954197 -60.08074506 3.49311984 -68.19140625 9.65234375 C-69.86328125 10.82421875 -69.86328125 10.82421875 -71.86328125 10.82421875 C-72.19328125 11.81421875 -72.52328125 12.80421875 -72.86328125 13.82421875 C-73.56453125 14.48421875 -74.26578125 15.14421875 -74.98828125 15.82421875 C-78.56155936 19.19898141 -80.87534165 23.42232684 -83.41015625 27.59375 C-83.8896875 28.32980469 -84.36921875 29.06585938 -84.86328125 29.82421875 C-85.19328125 29.82421875 -85.52328125 29.82421875 -85.86328125 29.82421875 C-86.44453976 20.33032978 -82.1703143 14.25952212 -76.86328125 6.82421875 C-76.14140625 5.79296875 -75.41953125 4.76171875 -74.67578125 3.69921875 C-55.95620426 -17.90029316 -21.11899143 -16.04812855 0 0 Z " fill="#040505" transform="translate(151.86328125,28.17578125)"/>
<path d="M0 0 C1.18613892 0.00785522 1.18613892 0.00785522 2.39624023 0.01586914 C3.67724609 0.02070312 3.67724609 0.02070312 4.98413086 0.02563477 C5.88196289 0.03401367 6.77979492 0.04239258 7.70483398 0.05102539 C8.6065332 0.05553711 9.50823242 0.06004883 10.43725586 0.06469727 C12.67234712 0.07652315 14.90730835 0.09300319 17.14233398 0.11352539 C18.50403789 4.02480256 19.57245229 7.88222706 20.45483398 11.92602539 C23.3158124 23.5280836 29.51909679 31.94533628 39.43139648 38.50024414 C50.18858841 44.90185835 62.35893364 46.09687386 74.53295898 43.34790039 C79.5476973 41.62151507 83.9324005 39.36665581 88.14233398 36.11352539 C88.7159668 35.67137695 89.28959961 35.22922852 89.88061523 34.77368164 C95.99862744 29.8347296 99.84123435 24.23695092 103.14233398 17.11352539 C104.13233398 17.11352539 105.12233398 17.11352539 106.14233398 17.11352539 C103.9421585 29.71453043 97.61258427 39.16457228 87.57202148 47.16040039 C73.48459249 56.77106623 57.07593888 58.34345727 40.51733398 55.48852539 C25.52006745 51.02125451 12.40622449 40.43736617 4.20483398 27.23852539 C-0.07024828 19.33578918 -3.89609483 10.25169894 -2.85766602 1.11352539 C-1.85766602 0.11352539 -1.85766602 0.11352539 0 0 Z " fill="#84A34B" transform="translate(47.857666015625,68.886474609375)"/>
<path d="M0 0 C1.17046875 0.01804688 2.3409375 0.03609375 3.546875 0.0546875 C4.88492188 0.08949219 4.88492188 0.08949219 6.25 0.125 C6.745 1.61 6.745 1.61 7.25 3.125 C8.11625 3.145625 8.9825 3.16625 9.875 3.1875 C14.57949442 4.49430401 16.56647352 7.16638175 19.25 11.125 C20.625 14.0625 20.625 14.0625 21.25 16.125 C21.91 16.125 22.57 16.125 23.25 16.125 C23.75938345 18.62340454 24.25763114 21.12323388 24.75 23.625 C24.89308594 24.32109375 25.03617188 25.0171875 25.18359375 25.734375 C27.48861755 37.58878311 27.48861755 37.58878311 24.9375 42.8125 C24.380625 43.575625 23.82375 44.33875 23.25 45.125 C22.79625 45.99125 22.3425 46.8575 21.875 47.75 C19.99598799 50.49624832 18.13045449 51.53316989 15.25 53.125 C14.755 54.115 14.755 54.115 14.25 55.125 C12.58129455 55.89260451 10.90606356 56.64954167 9.19921875 57.328125 C7.40387269 58.06209413 5.66574413 58.93207375 3.9375 59.8125 C-1.59709177 61.78243944 -7.15080229 61.99139924 -12.75 60.125 C-12.75 59.465 -12.75 58.805 -12.75 58.125 C-13.61625 58.021875 -14.4825 57.91875 -15.375 57.8125 C-22.62783056 56.33507155 -27.32114571 52.72330265 -31.4375 46.625 C-35.19069327 39.47606044 -35.50913419 33.14109556 -34.75 25.125 C-33.49620374 21.15661654 -31.7192561 18.0942561 -28.75 15.125 C-27.76 15.125 -26.77 15.125 -25.75 15.125 C-25.09 22.055 -24.43 28.985 -23.75 36.125 C-22.76 36.125 -21.77 36.125 -20.75 36.125 C-20.62625 37.795625 -20.62625 37.795625 -20.5 39.5 C-20.17126213 43.18253944 -20.17126213 43.18253944 -17.6875 44.5625 C-16.7284375 44.8409375 -16.7284375 44.8409375 -15.75 45.125 C-15.75 45.785 -15.75 46.445 -15.75 47.125 C-7.83823844 49.87691706 -0.65364148 50.08886555 7.25 47.125 C8.24 47.62 8.24 47.62 9.25 48.125 C9.91 46.805 10.57 45.485 11.25 44.125 C12.24 44.125 13.23 44.125 14.25 44.125 C14.085 43.155625 13.92 42.18625 13.75 41.1875 C13.3345217 38.35314119 13.23611854 35.67425866 13.3125 32.8125 C13.39600309 26.7272123 12.16933167 20.88299502 10.25 15.125 C3.05898384 11.78631393 -4.06856682 11.6258694 -11.859375 11.3359375 C-14.9628119 11.16767887 -17.74021419 10.84782258 -20.75 10.125 C-19 8.125 -19 8.125 -16.75 6.125 C-15.43 6.125 -14.11 6.125 -12.75 6.125 C-12.5025 5.50625 -12.255 4.8875 -12 4.25 C-9.23167023 -0.45616061 -5.04310345 -0.10086207 0 0 Z " fill="#42AFCC" transform="translate(113.75,39.875)"/>
<path d="M0 0 C4.33832386 3.51110109 7.50255556 7.2195866 8.24609375 12.9375 C8.46777654 18.16921375 7.88861497 22.33901167 4.96875 26.8046875 C-0.89543812 31.09423251 -6.83617708 32.88751036 -14.03125 31.8046875 C-18.92372734 30.42203086 -21.01498412 28.38554554 -23.71875 24.1796875 C-25.37648232 19.91694725 -25.30198928 16.31700878 -25.03125 11.8046875 C-23.71125 11.8046875 -22.39125 11.8046875 -21.03125 11.8046875 C-21.03125 11.1446875 -21.03125 10.4846875 -21.03125 9.8046875 C-20.04125 9.1446875 -19.05125 8.4846875 -18.03125 7.8046875 C-17.78109127 4.22111509 -17.78109127 4.22111509 -18.03125 0.8046875 C-17.37125 0.8046875 -16.71125 0.8046875 -16.03125 0.8046875 C-16.03125 0.1446875 -16.03125 -0.5153125 -16.03125 -1.1953125 C-10.71953903 -2.73742214 -4.85711761 -2.8582269 0 0 Z " fill="#010203" transform="translate(118.03125,55.1953125)"/>
<path d="M0 0 C0.78503906 0.01417969 1.57007813 0.02835937 2.37890625 0.04296875 C3.55259766 0.05263672 3.55259766 0.05263672 4.75 0.0625 C6.94140625 0.23046875 6.94140625 0.23046875 9.94140625 1.23046875 C10.56640625 3.15625 10.56640625 3.15625 10.94140625 5.54296875 C11.58663653 9.15963707 11.58663653 9.15963707 13.50390625 12.23046875 C15.84832954 15.49227506 15.69804868 19.3031811 15.94140625 23.23046875 C16.60140625 23.23046875 17.26140625 23.23046875 17.94140625 23.23046875 C20.94140625 28.85546875 20.94140625 28.85546875 20.94140625 32.23046875 C21.78703125 32.12734375 22.63265625 32.02421875 23.50390625 31.91796875 C27.33046319 32.26583756 28.8559604 33.46960604 31.81640625 35.7890625 C40.7212484 41.8292955 50.30928565 43.31785924 60.75390625 43.79296875 C61.63755859 43.83615234 62.52121094 43.87933594 63.43164062 43.92382812 C65.60140248 44.02938411 67.77138535 44.13037946 69.94140625 44.23046875 C69.94140625 45.22046875 69.94140625 46.21046875 69.94140625 47.23046875 C56.56875486 49.40824912 41.51430261 51.40261787 28.94140625 45.23046875 C28.20019531 44.87210938 27.45898438 44.51375 26.6953125 44.14453125 C24.76374539 43.20050712 22.85051845 42.21911614 20.94140625 41.23046875 C20.94140625 40.57046875 20.94140625 39.91046875 20.94140625 39.23046875 C19.29140625 38.57046875 17.64140625 37.91046875 15.94140625 37.23046875 C15.94140625 36.57046875 15.94140625 35.91046875 15.94140625 35.23046875 C15.34328125 35.02421875 14.74515625 34.81796875 14.12890625 34.60546875 C11.15025931 32.73317639 10.46399396 30.34184364 8.94140625 27.23046875 C7.95140625 26.90046875 6.96140625 26.57046875 5.94140625 26.23046875 C3.99356185 23.7422163 2.50377567 20.97352124 0.94140625 18.23046875 C0.10609375 16.80734375 0.10609375 16.80734375 -0.74609375 15.35546875 C-2.50774658 11.16105725 -3.7715764 6.78994433 -4.05859375 2.23046875 C-2.05859375 0.23046875 -2.05859375 0.23046875 0 0 Z " fill="#789F2D" transform="translate(52.05859375,72.76953125)"/>
<path d="M0 0 C1.75 1.203125 1.75 1.203125 3 3 C3.29296875 5.69921875 3.29296875 5.69921875 3.1875 8.6875 C3.16042969 9.68136719 3.13335937 10.67523438 3.10546875 11.69921875 C3.07066406 12.45847656 3.03585938 13.21773437 3 14 C0.69631264 15.06652192 -1.64018187 16.06421005 -4 17 C-4.66 16.67 -5.32 16.34 -6 16 C-5.67 12.37 -5.34 8.74 -5 5 C-8.03292954 6.14083176 -8.03292954 6.14083176 -11 8 C-12.1243977 10.7407194 -12.25617534 12.18023892 -11.375 15 C-9.95994549 17.19715153 -9.95994549 17.19715153 -7.5 19.4375 C-3.85244176 23.1762472 -3.13340946 25.64367044 -2.625 30.8125 C-2.77166367 36.34381553 -5.09647322 40.81446925 -8.6875 44.9375 C-12.28337506 46.58965881 -16.04912478 47.14607109 -20 47 C-23.29391434 45.77671659 -23.96920489 45.04619267 -26 42 C-26.42783066 39.19409764 -26.22830702 36.8766685 -26 34 C-22.77208445 31.8480563 -21.71599191 31.79913557 -18 32 C-17.08941469 35.07322544 -16.91113816 37.80097361 -17 41 C-14.9755763 40.30904671 -14.9755763 40.30904671 -13 39 C-11.58937421 35.07645614 -11.48819975 31.19420058 -13.125 27.375 C-14.16920722 26.05233752 -15.21749447 24.73277357 -16.28125 23.42578125 C-19.58537313 19.1515522 -21.52241873 15.52893151 -21 10 C-19.6946226 5.53996055 -17.29793164 2.82749208 -13.3125 0.5 C-8.8839149 -1.43232271 -4.59211281 -1.51258943 0 0 Z " fill="#010202" transform="translate(206,43)"/>
<path d="M0 0 C1.89575251 -0.02721176 3.79161979 -0.04649136 5.6875 -0.0625 C6.74324219 -0.07410156 7.79898438 -0.08570313 8.88671875 -0.09765625 C11.72410262 -0.00865425 14.2438919 0.35060162 17 1 C13.69860509 3.71186011 11.33100064 4.83451314 7.07421875 5.13671875 C5.03601831 5.3043952 3.01460754 5.64824313 1 6 C-0.6083124 7.86655232 -0.6083124 7.86655232 -2 10 C-4.279351 11.22734285 -6.5689516 12.08262325 -9 13 C-5.7075662 14.0629117 -2.4971923 14.13765419 0.94091797 14.23925781 C15.04252387 14.69899285 15.04252387 14.69899285 21 19 C27.27706642 26.06169972 25.09709347 39.11055378 25 48 C24.0409375 48.433125 24.0409375 48.433125 23.0625 48.875 C20.84793921 49.82823451 20.84793921 49.82823451 20 52 C18.34608154 52.39171753 16.67654729 52.72057545 15 53 C14.01 53.33 13.02 53.66 12 54 C5.54551003 54.58677182 0.74619251 53.99801348 -5 51 C-5 50.34 -5 49.68 -5 49 C-5.639375 48.855625 -6.27875 48.71125 -6.9375 48.5625 C-9 48 -9 48 -10 47 C-10.04092937 44.66702567 -10.04241723 42.33294775 -10 40 C-10.99 40 -11.98 40 -13 40 C-14.72330907 32.90673679 -15.2494783 26.29031024 -15 19 C-16.32 19.33 -17.64 19.66 -19 20 C-19 17 -19 17 -16.8125 14.6875 C-15.884375 13.800625 -14.95625 12.91375 -14 12 C-13.236875 10.96875 -12.47375 9.9375 -11.6875 8.875 C-7.55102744 4.44993633 -3.8335212 3.15645209 2.18359375 2.82421875 C5.12957354 2.81380893 8.05727801 2.86757751 11 3 C11 2.34 11 1.68 11 1 C7.37 1 3.74 1 0 1 C0 0.67 0 0.34 0 0 Z M-1 18 C-1 18.66 -1 19.32 -1 20 C-2.258125 19.773125 -3.51625 19.54625 -4.8125 19.3125 C-8.06159756 18.89253831 -8.06159756 18.89253831 -11.0625 20.0625 C-12.44348063 22.91652663 -11.73385385 24.9978706 -11 28 C-9.35 28.33 -7.7 28.66 -6 29 C-6 29.66 -6 30.32 -6 31 C-7.32 31 -8.64 31 -10 31 C-10.73994125 38.103436 -9.43121917 42.40055032 -5 48 C-2.05826023 50.94173977 1.06637792 51.18030595 5.125 51.375 C10.81417736 51.29022749 15.43091133 49.34220375 20 46 C23.2524639 41.02564345 23.91706981 35.81154354 23 30 C21.12761154 24.71076707 17.70708012 21.01963631 13 18 C8.26495015 16.79532301 3.72432821 16.62842084 -1 18 Z " fill="#48ADC5" transform="translate(103,36)"/>
<path d="M0 0 C1.8359375 1.60546875 1.8359375 1.60546875 3 3 C2.34 3.66 1.68 4.32 1 5 C0.01 4.505 0.01 4.505 -1 4 C-1 3.34 -1 2.68 -1 2 C-5.07088917 1.89981721 -9.14128401 1.82792529 -13.21313477 1.78027344 C-14.593145 1.7603733 -15.97307337 1.7332426 -17.3527832 1.69824219 C-30.41470945 1.37560834 -39.98919455 3.39472311 -50 12 C-48.46279297 11.47599609 -48.46279297 11.47599609 -46.89453125 10.94140625 C-45.53390863 10.48160964 -44.17322849 10.0219832 -42.8125 9.5625 C-42.13896484 9.33240234 -41.46542969 9.10230469 -40.77148438 8.86523438 C-34.59141721 6.78511421 -29.52255832 5.8721067 -23 6 C-25 9 -25 9 -28.5625 9.95703125 C-30.04041152 10.24862282 -31.5196754 10.53341723 -33 10.8125 C-39.47644905 12.16215764 -44.59937695 13.93336915 -50.1171875 17.73046875 C-52 19 -52 19 -55 20 C-55.33 20.99 -55.66 21.98 -56 23 C-56.70125 23.66 -57.4025 24.32 -58.125 25 C-61.69827811 28.37476266 -64.0120604 32.59810809 -66.546875 36.76953125 C-67.02640625 37.50558594 -67.5059375 38.24164063 -68 39 C-68.33 39 -68.66 39 -69 39 C-69.58125851 29.50611103 -65.30703305 23.43530337 -60 16 C-59.278125 14.96875 -58.55625 13.9375 -57.8125 12.875 C-44.42920241 -2.56726645 -18.46908863 -7.12379133 0 0 Z " fill="#040708" transform="translate(135,19)"/>
<path d="M0 0 C0.23074219 1.05058594 0.46148437 2.10117188 0.69921875 3.18359375 C3.94870949 17.39736409 8.75463442 28.09782276 21.2890625 36.38671875 C31.28564463 42.33569342 41.57145869 43.37121029 53 42 C56.06865442 41.20336445 58.81862589 40.2235978 61.71875 38.95703125 C64.82218838 37.65507508 67.66457981 37.29648179 71 37 C70.75 38.875 70.75 38.875 70 41 C67.9375 42.25 67.9375 42.25 66 43 C66 42.34 66 41.68 66 41 C65.33613281 41.27714844 64.67226562 41.55429688 63.98828125 41.83984375 C62.66376953 42.38318359 62.66376953 42.38318359 61.3125 42.9375 C60.00732422 43.47697266 60.00732422 43.47697266 58.67578125 44.02734375 C47.3808893 48.1330782 34.85722781 46.71934777 24 42 C21.0709928 40.28014706 18.28878765 38.47583281 15.53515625 36.48828125 C12.66164707 34.80136754 10.28998477 34.35916864 7 34 C6.01 31.03 5.02 28.06 4 25 C3.34 25 2.68 25 2 25 C1.80664062 24.22914062 1.61328125 23.45828125 1.4140625 22.6640625 C1.15367188 21.66117188 0.89328125 20.65828125 0.625 19.625 C0.36976562 18.62726563 0.11453125 17.62953125 -0.1484375 16.6015625 C-0.82404319 13.87458985 -0.82404319 13.87458985 -3 12 C-4.1875 8.5 -4.1875 8.5 -5 5 C-4.67 4.34 -4.34 3.68 -4 3 C-5.95825873 2.97305149 -7.91662226 2.95362782 -9.875 2.9375 C-11.51082031 2.92009766 -11.51082031 2.92009766 -13.1796875 2.90234375 C-15.95177546 2.80255697 -15.95177546 2.80255697 -18 4 C-18 3.01 -18 2.02 -18 1 C-15.56257869 0.83210874 -13.12507454 0.66563867 -10.6875 0.5 C-9.99720703 0.45230469 -9.30691406 0.40460938 -8.59570312 0.35546875 C-5.72337641 0.16120511 -2.87986212 0 0 0 Z " fill="#83A24D" transform="translate(66,71)"/>
<path d="M0 0 C0.66 0.33 1.32 0.66 2 1 C-0.1951302 13.5721093 -6.52717353 23.26078313 -16.7109375 31.08203125 C-23.36372678 35.50790647 -29.89805173 39 -38 39 C-38 38.34 -38 37.68 -38 37 C-38.71285156 37.16242188 -39.42570312 37.32484375 -40.16015625 37.4921875 C-46.66344275 38.65508605 -53.55264127 38.39402351 -60 37 C-60 36.67 -60 36.34 -60 36 C-59.175 36.01160156 -58.35 36.02320313 -57.5 36.03515625 C-48.28689565 36.10713363 -39.18497363 35.66799808 -30 35 C-30 34.01 -30 33.02 -30 32 C-31.485 32.495 -31.485 32.495 -33 33 C-33.66 32.34 -34.32 31.68 -35 31 C-33.25014646 30.52029877 -31.50011109 30.04126076 -29.75 29.5625 C-28.77546875 29.29566406 -27.8009375 29.02882813 -26.796875 28.75390625 C-24.53627347 28.14455416 -22.27377991 27.55761745 -20 27 C-20 27.66 -20 28.32 -20 29 C-16.62911733 26.72584713 -16.62911733 26.72584713 -15 23 C-15.99 22.67 -16.98 22.34 -18 22 C-17.40832031 21.50371094 -16.81664062 21.00742188 -16.20703125 20.49609375 C-9.39039298 14.63578646 -4.89434127 9.17811667 -1 1 C-0.67 0.67 -0.34 0.34 0 0 Z " fill="#7D9D3E" transform="translate(152,85)"/>
<path d="M0 0 C4.33832386 3.51110109 7.50255556 7.2195866 8.24609375 12.9375 C8.46777654 18.16921375 7.88861497 22.33901167 4.96875 26.8046875 C-0.89543812 31.09423251 -6.83617708 32.88751036 -14.03125 31.8046875 C-18.92372734 30.42203086 -21.01498412 28.38554554 -23.71875 24.1796875 C-25.37648232 19.91694725 -25.30198928 16.31700878 -25.03125 11.8046875 C-23.71125 11.8046875 -22.39125 11.8046875 -21.03125 11.8046875 C-21.03125 11.1446875 -21.03125 10.4846875 -21.03125 9.8046875 C-20.04125 9.1446875 -19.05125 8.4846875 -18.03125 7.8046875 C-17.78109127 4.22111509 -17.78109127 4.22111509 -18.03125 0.8046875 C-17.37125 0.8046875 -16.71125 0.8046875 -16.03125 0.8046875 C-16.03125 0.1446875 -16.03125 -0.5153125 -16.03125 -1.1953125 C-10.71953903 -2.73742214 -4.85711761 -2.8582269 0 0 Z M-13.03125 3.8046875 C-14.40025354 7.38465009 -14.40025354 7.38465009 -15.03125 10.8046875 C-17.67125 11.4646875 -20.31125 12.1246875 -23.03125 12.8046875 C-23.36206222 18.09768305 -23.34999082 23.40933135 -20.03125 27.8046875 C-15.03655296 30.48413435 -10.51178317 31.26978053 -5.03125 29.8046875 C-0.29871471 27.93139228 3.71117484 25.50472544 5.96875 20.8046875 C6.51834 16.73897058 6.83560413 12.53839576 4.96875 8.8046875 C3.97875 8.8046875 2.98875 8.8046875 1.96875 8.8046875 C1.96875 7.1546875 1.96875 5.5046875 1.96875 3.8046875 C0.49019705 3.30287559 -0.98911058 2.80328674 -2.46875 2.3046875 C-3.29246094 2.02625 -4.11617187 1.7478125 -4.96484375 1.4609375 C-8.56434918 0.31780534 -9.99866213 1.51175521 -13.03125 3.8046875 Z " fill="#041421" transform="translate(118.03125,55.1953125)"/>
<path d="M0 0 C0 1.32 0 2.64 0 4 C-3.08809695 5.76462683 -4.23312136 6 -8 6 C-8.18175781 6.83144531 -8.36351562 7.66289063 -8.55078125 8.51953125 C-8.80214844 9.60621094 -9.05351562 10.69289063 -9.3125 11.8125 C-9.55613281 12.89144531 -9.79976563 13.97039062 -10.05078125 15.08203125 C-10.99540838 17.98588501 -11.49646427 19.29948516 -14 21 C-16.72507798 21.39078556 -19.23121956 21.13616953 -22 21 C-22.33 20.34 -22.66 19.68 -23 19 C-21.5625 16.375 -21.5625 16.375 -20 14 C-20.66 13.01 -21.32 12.02 -22 11 C-21.625 7.3125 -21.625 7.3125 -21 4 C-15.555 3.505 -15.555 3.505 -10 3 C-10 2.34 -10 1.68 -10 1 C-6.61981469 -0.04005702 -3.5219721 -0.08004482 0 0 Z " fill="#010101" transform="translate(318,68)"/>
<path d="M0 0 C1.8359375 1.60546875 1.8359375 1.60546875 3 3 C2.34 3.66 1.68 4.32 1 5 C0.34 4.67 -0.32 4.34 -1 4 C-1 3.34 -1 2.68 -1 2 C-5.07088917 1.89981721 -9.14128401 1.82792529 -13.21313477 1.78027344 C-14.593145 1.7603733 -15.97307337 1.7332426 -17.3527832 1.69824219 C-29.17918848 1.40612611 -38.57353875 2.67516507 -48 10.25 C-52.7080292 14 -52.7080292 14 -56 14 C-55.68291737 11.04919023 -55.17500475 10.14483152 -52.84765625 8.21875 C-36.59610966 -1.81025491 -18.70462561 -7.21464131 0 0 Z " fill="#151616" transform="translate(135,19)"/>
<path d="M0 0 C2.87411448 2.59597437 4.31699796 4.19287148 5 8 C5.06926968 10.75970408 5.0941736 13.49196042 5.0625 16.25 C5.05798828 16.99507812 5.05347656 17.74015625 5.04882812 18.5078125 C5.03709246 20.3385764 5.0191585 22.16929873 5 24 C4.0409375 24.433125 4.0409375 24.433125 3.0625 24.875 C0.84793921 25.82823451 0.84793921 25.82823451 0 28 C-1.65391846 28.39171753 -3.32345271 28.72057545 -5 29 C-5.99 29.33 -6.98 29.66 -8 30 C-14.45448997 30.58677182 -19.25380749 29.99801348 -25 27 C-25 26.34 -25 25.68 -25 25 C-25.639375 24.855625 -26.27875 24.71125 -26.9375 24.5625 C-29 24 -29 24 -30 23 C-30.04092937 20.66702567 -30.04241723 18.33294775 -30 16 C-28.05027863 17.76403362 -26.88222717 19.21948573 -25.625 21.5625 C-23.59117117 24.61324324 -22.55356567 25.1502343 -19 26 C-12.40791467 26.83362947 -6.51694699 25.86072067 -1 22 C2.28930693 16.91652566 2.65071693 11.88845483 2 6 C1.11539972 2.58528076 1.11539972 2.58528076 0 0 Z " fill="#4AA5BB" transform="translate(123,60)"/>
<path d="M0 0 C0.70189453 0.00451172 1.40378906 0.00902344 2.12695312 0.01367188 C3.85550538 0.02543073 5.58401365 0.04336546 7.3125 0.0625 C7.3125 0.7225 7.3125 1.3825 7.3125 2.0625 C6.55066406 2.08828125 5.78882813 2.1140625 5.00390625 2.140625 C-6.21928943 2.75713013 -13.29302254 5.73704612 -21.515625 13.5 C-26.71200027 19.63097513 -28.09684805 27.23636165 -28.6875 35.0625 C-29.6775 34.7325 -30.6675 34.4025 -31.6875 34.0625 C-32.46969184 25.2628418 -29.09742618 16.75256846 -23.6015625 9.91796875 C-16.65336777 3.18247386 -9.55447708 -0.11597404 0 0 Z " fill="#5CAFC3" transform="translate(106.6875,36.9375)"/>
<path d="M0 0 C0.23074219 1.05058594 0.46148437 2.10117188 0.69921875 3.18359375 C2.51558471 11.11909061 4.3799478 18.16420847 9 25 C9.66 25.99 10.32 26.98 11 28 C10.01 28 9.02 28 8 28 C6.3125 26 6.3125 26 5 24 C5.84198307 25.09758507 6.67330671 26.20335317 7.5 27.3125 C7.9640625 27.92738281 8.428125 28.54226562 8.90625 29.17578125 C10 31 10 31 10 34 C9.01 34 8.02 34 7 34 C6.01 31.03 5.02 28.06 4 25 C3.34 25 2.68 25 2 25 C1.80664062 24.22914062 1.61328125 23.45828125 1.4140625 22.6640625 C1.15367188 21.66117188 0.89328125 20.65828125 0.625 19.625 C0.36976562 18.62726563 0.11453125 17.62953125 -0.1484375 16.6015625 C-0.82404319 13.87458985 -0.82404319 13.87458985 -3 12 C-4.1875 8.5 -4.1875 8.5 -5 5 C-4.67 4.34 -4.34 3.68 -4 3 C-5.95825873 2.97305149 -7.91662226 2.95362782 -9.875 2.9375 C-11.51082031 2.92009766 -11.51082031 2.92009766 -13.1796875 2.90234375 C-15.95177546 2.80255697 -15.95177546 2.80255697 -18 4 C-18 3.01 -18 2.02 -18 1 C-15.56257869 0.83210874 -13.12507454 0.66563867 -10.6875 0.5 C-9.99720703 0.45230469 -9.30691406 0.40460938 -8.59570312 0.35546875 C-5.72337641 0.16120511 -2.87986212 0 0 0 Z " fill="#7E9E3F" transform="translate(66,71)"/>
<path d="M0 0 C2.99614619 0.6756685 5.72591827 1.63954775 8.5625 2.8125 C12.27598003 4.31544465 15.99738407 5.78474862 19.75 7.1875 C20.61109375 7.51105469 21.4721875 7.83460937 22.359375 8.16796875 C28.04596296 9.95974868 33.47712711 10.131824 39.375 10.0625 C40.11105469 10.05798828 40.84710938 10.05347656 41.60546875 10.04882812 C43.40368158 10.03715142 45.20185197 10.01922011 47 10 C47 10.99 47 11.98 47 13 C28.42592599 13.64458879 15.39370342 11.85007805 0 1 C0 0.67 0 0.34 0 0 Z " fill="#829E49" transform="translate(67,112)"/>
<path d="M0 0 C6.57760996 6.01381482 11.68605207 13.24470663 12.11328125 22.4375 C12.12355741 24.62974727 12.08939687 26.80977667 12 29 C8.86138548 26.59372887 7.77673602 24.72571562 7.125 20.9375 C6.03581015 14.95685757 3.01403119 10.20084187 0 5 C-0.67824295 3.6725179 -1.34964186 2.34136367 -2 1 C-1.34 0.67 -0.68 0.34 0 0 Z " fill="#0F0F10" transform="translate(144,41)"/>
<path d="M0 0 C3.31219232 -0.117791 6.62383492 -0.18777155 9.9375 -0.25 C10.86369141 -0.28351562 11.78988281 -0.31703125 12.74414062 -0.3515625 C19.24710293 -0.44283215 24.41491564 0.53039699 30 4 C32.125 6.5 32.125 6.5 33 9 C32.6875 11.3125 32.6875 11.3125 32 13 C31.278125 12.2575 30.55625 11.515 29.8125 10.75 C28.884375 9.8425 27.95625 8.935 27 8 C26.2575 7.2575 25.515 6.515 24.75 5.75 C19.77515961 2.58419248 13.77935861 2.81356908 8 3 C8 3.66 8 4.32 8 5 C6.35 4.67 4.7 4.34 3 4 C3.33 3.34 3.66 2.68 4 2 C2.68 1.34 1.36 0.68 0 0 Z " fill="#51A2B6" transform="translate(94,51)"/>
<path d="M0 0 C0 0.33 0 0.66 0 1 C-3.96 1 -7.92 1 -12 1 C-11.938125 2.423125 -11.87625 3.84625 -11.8125 5.3125 C-11.63013699 9.50684932 -11.63013699 9.50684932 -13.3125 11.75 C-15.72336404 13.53582522 -18.06524268 13.67391585 -21 14 C-20.86722656 14.58007812 -20.73445313 15.16015625 -20.59765625 15.7578125 C-19.60295999 20.15770982 -18.68631668 24.53894158 -18 29 C-21.18099946 27.40950027 -21.71754461 25.26443191 -23 22 C-23.24096629 18.98054484 -23.18129181 16.02153016 -23 13 C-21.68 13 -20.36 13 -19 13 C-19 12.34 -19 11.68 -19 11 C-18.01 10.34 -17.02 9.68 -16 9 C-15.74984127 5.41642759 -15.74984127 5.41642759 -16 2 C-15.34 2 -14.68 2 -14 2 C-14 1.34 -14 0.68 -14 0 C-9.20699867 -1.39151652 -4.84864218 -0.68662689 0 0 Z " fill="#1C3035" transform="translate(116,54)"/>
<path d="M0 0 C0.66 0.33 1.32 0.66 2 1 C0.96381711 7.01258757 -0.16634646 12.15749026 -4 17 C-6.80455822 17.89724372 -9.00744123 17.95012402 -12 18 C-11.62488281 17.52691406 -11.24976563 17.05382812 -10.86328125 16.56640625 C-7.45531491 12.16266133 -4.58825135 7.70534154 -1.98046875 2.78515625 C-1 1 -1 1 0 0 Z " fill="#65895C" transform="translate(152,85)"/>
<path d="M0 0 C2.87411448 2.59597437 4.31699796 4.19287148 5 8 C5.06926968 10.75970408 5.0941736 13.49196042 5.0625 16.25 C5.05798828 16.99507812 5.05347656 17.74015625 5.04882812 18.5078125 C5.03709246 20.3385764 5.0191585 22.16929873 5 24 C3.44033782 24.508783 1.87710759 25.00663469 0.3125 25.5 C-0.55761719 25.7784375 -1.42773438 26.056875 -2.32421875 26.34375 C-4.99391677 26.99850805 -7.26396684 27.11831495 -10 27 C-7 25 -7 25 -4 23.8125 C-0.84675303 21.90741329 0.29787271 20.49027341 1.53515625 17.02734375 C2.90230028 11.06475759 2.31911335 5.65283879 0 0 Z " fill="#3D8597" transform="translate(123,60)"/>
<path d="M0 0 C-0.33 2.64 -0.66 5.28 -1 8 C-5.41225737 9.47075246 -8.48281619 10.36884358 -13 9 C-13 6 -13 6 -11.42578125 4.39453125 C-10.37970703 3.61142578 -10.37970703 3.61142578 -9.3125 2.8125 C-8.62800781 2.28269531 -7.94351563 1.75289063 -7.23828125 1.20703125 C-4.62535602 -0.20203314 -2.92557181 -0.2305617 0 0 Z " fill="#050606" transform="translate(227,72)"/>
<path d="M0 0 C-2.70275052 4.05412578 -5.74100607 4.14175586 -10.25 5.0625 C-11.75577858 5.38405992 -13.26100124 5.70823538 -14.765625 6.03515625 C-15.48814453 6.18871582 -16.21066406 6.34227539 -16.95507812 6.50048828 C-19.25117578 7.01969063 -19.25117578 7.01969063 -22.359375 8.24609375 C-23.23078125 8.49488281 -24.1021875 8.74367188 -25 9 C-25.99 8.34 -26.98 7.68 -28 7 C-19.25309676 2.64863652 -9.87941981 -0.67359681 0 0 Z " fill="#151616" transform="translate(112,25)"/>
<path d="M0 0 C0.66 0.33 1.32 0.66 2 1 C1.67 1.99 1.34 2.98 1 4 C-0.68402124 4.75946056 -2.3734692 5.51028712 -4.09375 6.18359375 C-7.83027865 7.78386934 -11.02936082 10.22348866 -14.1875 12.75 C-16 14 -16 14 -19 14 C-18.8203125 12.22265625 -18.8203125 12.22265625 -18 10 C-12.70456675 5.73983311 -6.44217541 2.19308099 0 0 Z " fill="#151515" transform="translate(98,19)"/>
<path d="M0 0 C0.33 0 0.66 0 1 0 C1.36520775 5.9650599 1.37625286 10.83631916 -2 16 C-7.85863596 20.28548371 -13.80975209 22.09201004 -21 21 C-24 20.125 -24 20.125 -26 19 C-26.33 18.34 -26.66 17.68 -27 17 C-26.33613281 17.15597656 -25.67226562 17.31195313 -24.98828125 17.47265625 C-24.10527344 17.66730469 -23.22226563 17.86195312 -22.3125 18.0625 C-21.44238281 18.25972656 -20.57226562 18.45695312 -19.67578125 18.66015625 C-14.89716413 19.2670755 -10.41416972 17.8057967 -6 16 C-5.67 15.01 -5.34 14.02 -5 13 C-4.34 13 -3.68 13 -3 13 C-0.96834048 8.66579301 -0.47939368 4.71403788 0 0 Z " fill="#082730" transform="translate(125,66)"/>
<path d="M0 0 C1.98 0.66 3.96 1.32 6 2 C4.90073597 3.77388086 3.79539498 5.54399684 2.6875 7.3125 C2.07261719 8.29863281 1.45773438 9.28476562 0.82421875 10.30078125 C-0.66324661 12.50172035 -2.0403386 14.23328988 -4 16 C-4.4010138 9.45010793 -2.86887178 5.73774356 0 0 Z " fill="#1B3D43" transform="translate(70,42)"/>
<path d="M0 0 C0 0.66 0 1.32 0 2 C0.99 2.33 1.98 2.66 3 3 C-0.06203674 3.33768172 -3.12469458 3.66936893 -6.1875 4 C-7.48397461 4.14308594 -7.48397461 4.14308594 -8.80664062 4.2890625 C-12.88792925 4.72690189 -16.88788502 5.13621913 -21 5 C-18.81555707 1.72333561 -18.58954652 1.56245883 -15 0.8125 C-9.9885849 -0.17348574 -5.08810754 -0.19120237 0 0 Z " fill="#1F2221" transform="translate(120,16)"/>
<path d="M0 0 C2.05874459 2.05874459 3.12568937 3.8858074 4.5 6.4375 C5.91641787 9.05873674 7.34380797 11.51571196 9 14 C8.01 14 7.02 14 6 14 C4.3125 12 4.3125 12 3 10 C3.84198307 11.09758507 4.67330671 12.20335317 5.5 13.3125 C5.9640625 13.92738281 6.428125 14.54226562 6.90625 15.17578125 C8 17 8 17 8 20 C7.01 20 6.02 20 5 20 C4.01 17.03 3.02 14.06 2 11 C1.34 11 0.68 11 0 11 C-0.38133299 9.0085944 -0.71325582 7.00720923 -1 5 C-0.67 4.67 -0.34 4.34 0 4 C0 2.68 0 1.36 0 0 Z " fill="#7B9F3B" transform="translate(68,85)"/>
<path d="M0 0 C6.27 0 12.54 0 19 0 C19.33 0.66 19.66 1.32 20 2 C17.23434618 2.92188461 15.61716298 3.11785222 12.76953125 3.09765625 C11.96708984 3.09443359 11.16464844 3.09121094 10.33789062 3.08789062 C9.50451172 3.07951172 8.67113281 3.07113281 7.8125 3.0625 C6.96751953 3.05798828 6.12253906 3.05347656 5.25195312 3.04882812 C3.16793845 3.03705403 1.08396023 3.0191189 -1 3 C-0.67 2.01 -0.34 1.02 0 0 Z " fill="#8BAC65" transform="translate(46,69)"/>
<path d="M0 0 C1.65 0.33 3.3 0.66 5 1 C4.67 2.65 4.34 4.3 4 6 C3.34 6 2.68 6 2 6 C1.67 6.66 1.34 7.32 1 8 C0.01 7.67 -0.98 7.34 -2 7 C-4.6569191 7.87914688 -4.6569191 7.87914688 -7 9 C-7 8.01 -7 7.02 -7 6 C-5.35666496 4.96210419 -3.68756133 3.96432076 -2 3 C-1.34 2.01 -0.68 1.02 0 0 Z " fill="#0D0D0D" transform="translate(275,72)"/>
<path d="M0 0 C0 1.32 0 2.64 0 4 C-3.99560608 6.83022097 -7.42737323 5.76210446 -12 5 C-10 1 -10 1 -8.3125 0.375 C-5.51555886 -0.07855802 -2.82858003 -0.06428591 0 0 Z " fill="#0F0F0F" transform="translate(318,68)"/>
<path d="M0 0 C-0.25 1.875 -0.25 1.875 -1 4 C-3.0625 5.25 -3.0625 5.25 -5 6 C-5 5.34 -5 4.68 -5 4 C-6.051875 4.33 -7.10375 4.66 -8.1875 5 C-11.38873357 5.83966782 -13.7411008 6.19750904 -17 6 C-11.97470313 2.64980209 -6.22982527 -0.80384842 0 0 Z " fill="#7FA047" transform="translate(137,108)"/>
<path d="M0 0 C1.98 0 3.96 0 6 0 C2.43679155 5.09210286 -1.04741286 9.22660027 -6 13 C-6 8.72899427 -3.68440102 7.20818658 -1 4 C-0.14720662 1.78264561 -0.14720662 1.78264561 0 0 Z " fill="#6D9538" transform="translate(142,102)"/>
<path d="M0 0 C1.44632812 0.74056641 1.44632812 0.74056641 2.921875 1.49609375 C4.19780852 2.14344237 5.47385621 2.79056599 6.75 3.4375 C7.38421875 3.76298828 8.0184375 4.08847656 8.671875 4.42382812 C11.73359908 5.97063665 14.60615621 7.3915078 18 8 C17.67 8.66 17.34 9.32 17 10 C11.55782677 9.54648556 6.39309723 8.43368519 2 5 C0.76953125 2.359375 0.76953125 2.359375 0 0 Z " fill="#8AAB46" transform="translate(83,105)"/>
<path d="M0 0 C-2.11070205 3.16605307 -3.73539027 4.19587357 -7 6 C-6.67 8.31 -6.34 10.62 -6 13 C-6.99 13 -7.98 13 -9 13 C-10.22333253 10.55333494 -10.04546823 9.20770626 -9.8125 6.5 C-9.75707031 5.7059375 -9.70164062 4.911875 -9.64453125 4.09375 C-9 2 -9 2 -7.12109375 0.7265625 C-4.64303174 -0.12227642 -2.60187555 -0.14454864 0 0 Z " fill="#60B7C8" transform="translate(99,52)"/>
<path d="M0 0 C0.99 0.33 1.98 0.66 3 1 C3.33 1.99 3.66 2.98 4 4 C3.525625 4.433125 3.05125 4.86625 2.5625 5.3125 C0.76313043 7.02309613 0.76313043 7.02309613 0 10 C-0.99 10.33 -1.98 10.66 -3 11 C-3 10.34 -3 9.68 -3 9 C-3.66 8.67 -4.32 8.34 -5 8 C-2.25 2.25 -2.25 2.25 0 0 Z " fill="#0D0D0D" transform="translate(350,71)"/>
<path d="M0 0 C1.94972137 1.76403362 3.11777283 3.21948573 4.375 5.5625 C6.40486384 8.60729577 7.47716138 9.08099862 11 10 C13.99354616 10.43268062 16.98597922 10.75047323 20 11 C20 11.33 20 11.66 20 12 C9.44191344 12.18451025 9.44191344 12.18451025 5 11 C5 10.34 5 9.68 5 9 C4.360625 8.855625 3.72125 8.71125 3.0625 8.5625 C1 8 1 8 0 7 C-0.04092937 4.66702567 -0.04241723 2.33294775 0 0 Z " fill="#408A9B" transform="translate(93,76)"/>
<path d="M0 0 C-0.66 1.32 -1.32 2.64 -2 4 C-2.928125 3.835 -3.85625 3.67 -4.8125 3.5 C-7.95621353 2.92251612 -7.95621353 2.92251612 -11 3 C-11 1.68 -11 0.36 -11 -1 C-6.99799622 -2.60080151 -3.95443764 -1.29279692 0 0 Z " fill="#131313" transform="translate(367,54)"/>
<path d="M0 0 C0.99 0.33 1.98 0.66 3 1 C1.70700306 3.88437779 0.34058637 5.87219421 -2 8 C-2 7.01 -2 6.02 -2 5 C-2.99 4.67 -3.98 4.34 -5 4 C-2.6875 1.9375 -2.6875 1.9375 0 0 Z M-5 10 C-4.67 10.99 -4.34 11.98 -4 13 C-5.32 13.33 -6.64 13.66 -8 14 C-7.67 13.01 -7.34 12.02 -7 11 C-6.34 10.67 -5.68 10.34 -5 10 Z " fill="#749543" transform="translate(139,103)"/>
<path d="M0 0 C0 0.99 0 1.98 0 3 C-1.32 3.33 -2.64 3.66 -4 4 C-3.67 5.65 -3.34 7.3 -3 9 C-4.32 9.33 -5.64 9.66 -7 10 C-7.84454356 6.62182575 -8.10844919 4.32534757 -7 1 C-2.25 0 -2.25 0 0 0 Z " fill="#1A1A1A" transform="translate(304,71)"/>
<path d="M0 0 C7.42857143 -0.28571429 7.42857143 -0.28571429 11 2 C7.375 5 7.375 5 4 5 C4 4.34 4 3.68 4 3 C2.35 2.67 0.7 2.34 -1 2 C-0.67 1.34 -0.34 0.68 0 0 Z " fill="#161717" transform="translate(375,53)"/>
<path d="M0 0 C2.31 0 4.62 0 7 0 C7 0.66 7 1.32 7 2 C5.68 2 4.36 2 3 2 C3 4.97 3 7.94 3 11 C2.34 11 1.68 11 1 11 C0.67 7.37 0.34 3.74 0 0 Z " fill="#4C8897" transform="translate(90,65)"/>
<path d="M0 0 C0 0.33 0 0.66 0 1 C-3.96 1 -7.92 1 -12 1 C-12.33 2.65 -12.66 4.3 -13 6 C-13.66 6 -14.32 6 -15 6 C-15.33 4.68 -15.66 3.36 -16 2 C-15.34 2 -14.68 2 -14 2 C-14 1.34 -14 0.68 -14 0 C-9.20699867 -1.39151652 -4.84864218 -0.68662689 0 0 Z " fill="#234550" transform="translate(116,54)"/>
<path d="M0 0 C4.64322514 4.49344368 4.76182476 8.86698764 5 15 C2.00240068 13.50120034 1.69211326 11.19691136 0.59765625 8.14453125 C-0.17376071 5.3765057 -0.21405269 2.8540358 0 0 Z " fill="#86A64C" transform="translate(64,76)"/>
<path d="M0 0 C0.99 0.33 1.98 0.66 3 1 C3.33 1.99 3.66 2.98 4 4 C3.67 4.66 3.34 5.32 3 6 C-0.3 6 -3.6 6 -7 6 C-6.34 5.01 -5.68 4.02 -5 3 C-3.68 3.33 -2.36 3.66 -1 4 C-0.67 2.68 -0.34 1.36 0 0 Z " fill="#131313" transform="translate(268,67)"/>
<path d="M0 0 C1.62463842 -0.05395478 3.24978541 -0.09277195 4.875 -0.125 C5.77992187 -0.14820313 6.68484375 -0.17140625 7.6171875 -0.1953125 C10 0 10 0 12 2 C7.545 2.495 7.545 2.495 3 3 C2.34 4.65 1.68 6.3 1 8 C0.67 8 0.34 8 0 8 C0 5.36 0 2.72 0 0 Z " fill="#040E14" transform="translate(104,55)"/>
<path d="M0 0 C0.99 0.33 1.98 0.66 3 1 C3 1.66 3 2.32 3 3 C3.66 3.33 4.32 3.66 5 4 C1.62902617 5.49821059 -0.20442119 6 -4 6 C-4.33 5.01 -4.66 4.02 -5 3 C-4.360625 2.87625 -3.72125 2.7525 -3.0625 2.625 C-2.0415625 2.315625 -2.0415625 2.315625 -1 2 C-0.67 1.34 -0.34 0.68 0 0 Z " fill="#121212" transform="translate(214,67)"/>
<path d="M0 0 C0.33 0.66 0.66 1.32 1 2 C-0.32 2 -1.64 2 -3 2 C-3 2.66 -3 3.32 -3 4 C-3.66 4 -4.32 4 -5 4 C-5.66 5.32 -6.32 6.64 -7 8 C-7.33 8 -7.66 8 -8 8 C-8.1875 5.125 -8.1875 5.125 -8 2 C-4.77208445 -0.1519437 -3.71599191 -0.20086443 0 0 Z " fill="#060E10" transform="translate(188,75)"/>
<path d="M0 0 C1.65 0.33 3.3 0.66 5 1 C4.19185349 2.33597652 3.37836819 3.668725 2.5625 5 C2.11003906 5.7425 1.65757813 6.485 1.19140625 7.25 C0.79824219 7.8275 0.40507813 8.405 0 9 C-0.33 9 -0.66 9 -1 9 C-1.125 2.25 -1.125 2.25 0 0 Z " fill="#337B8C" transform="translate(67,49)"/>
<path d="M0 0 C1.89575251 -0.02721176 3.79161979 -0.04649136 5.6875 -0.0625 C6.74324219 -0.07410156 7.79898438 -0.08570313 8.88671875 -0.09765625 C11.72410262 -0.00865425 14.2438919 0.35060162 17 1 C14.37801226 3.15377564 12.35595828 4.40072174 9 5 C9 4.34 9 3.68 9 3 C9.66 3 10.32 3 11 3 C11 2.34 11 1.68 11 1 C7.37 1 3.74 1 0 1 C0 0.67 0 0.34 0 0 Z " fill="#4AA0B1" transform="translate(103,36)"/>
<path d="M0 0 C-2 3 -2 3 -3.9453125 3.51171875 C-4.66460937 3.56972656 -5.38390625 3.62773437 -6.125 3.6875 C-8.043125 3.8421875 -8.043125 3.8421875 -10 4 C-9.67 3.01 -9.34 2.02 -9 1 C-6.04335481 -0.4783226 -3.25770263 -0.06032783 0 0 Z " fill="#0F0F10" transform="translate(112,25)"/>
<path d="M0 0 C0.33 0 0.66 0 1 0 C1.37730162 6.16259312 0.96435433 10.52734586 -2 16 C-2.66 16.33 -3.32 16.66 -4 17 C-3.71125 16.05125 -3.4225 15.1025 -3.125 14.125 C-1.7889042 9.47729534 -0.89807965 4.74835732 0 0 Z " fill="#0D2D3C" transform="translate(125,66)"/>
<path d="M0 0 C1.8125 0.1875 1.8125 0.1875 4 1 C5.8125 3.3125 5.8125 3.3125 7 6 C6.57421875 8.16796875 6.57421875 8.16796875 6 10 C4.99723227 8.52270825 3.99785546 7.04311423 3 5.5625 C2.443125 4.73878906 1.88625 3.91507813 1.3125 3.06640625 C0 1 0 1 0 0 Z " fill="#4FA6B9" transform="translate(120,54)"/>
<path d="M0 0 C1.65 0 3.3 0 5 0 C5.33 0.66 5.66 1.32 6 2 C4.8125 3.5625 4.8125 3.5625 3 5 C0.3125 4.6875 0.3125 4.6875 -2 4 C-1.34 2.68 -0.68 1.36 0 0 Z " fill="#0A0B0B" transform="translate(397,59)"/>
<path d="M0 0 C0.66 0 1.32 0 2 0 C1.01 2.97 0.02 5.94 -1 9 C-1.99 8.67 -2.98 8.34 -4 8 C-2.68 5.36 -1.36 2.72 0 0 Z " fill="#0B0B0C" transform="translate(299,80)"/>
<path d="M0 0 C0.625 1.8125 0.625 1.8125 1 4 C0.01 5.485 0.01 5.485 -1 7 C-1.66 7 -2.32 7 -3 7 C-3.33 5.35 -3.66 3.7 -4 2 C-2.68 1.34 -1.36 0.68 0 0 Z " fill="#0B0B0B" transform="translate(304,73)"/>
<path d="M0 0 C2.94887797 0.50842724 5.37371875 1.59306362 8 3 C8 3.66 8 4.32 8 5 C5.69 4.67 3.38 4.34 1 4 C1 3.34 1 2.68 1 2 C0.34 1.67 -0.32 1.34 -1 1 C-0.67 0.67 -0.34 0.34 0 0 Z " fill="#0C0C0C" transform="translate(371,53)"/>
<path d="M0 0 C0.66 0.33 1.32 0.66 2 1 C1.67 3.31 1.34 5.62 1 8 C0.67 7.34 0.34 6.68 0 6 C-0.99 6 -1.98 6 -3 6 C-1.125 1.125 -1.125 1.125 0 0 Z " fill="#4897A6" transform="translate(152,85)"/>
<path d="M0 0 C0.33 0 0.66 0 1 0 C2.14051606 4.98283716 3.22225866 9.94468132 4 15 C1.40561249 13.70280625 1.04413882 12.67964831 0 10 C-0.1953125 7.421875 -0.1953125 7.421875 -0.125 4.75 C-0.09792969 3.41195312 -0.09792969 3.41195312 -0.0703125 2.046875 C-0.04710938 1.37140625 -0.02390625 0.6959375 0 0 Z " fill="#051D28" transform="translate(94,68)"/>
<path d="M0 0 C3.25 -0.3125 3.25 -0.3125 7 0 C9.4375 2.5 9.4375 2.5 11 5 C10.67 5.66 10.34 6.32 10 7 C9.0925 6.21625 8.185 5.4325 7.25 4.625 C4.94809764 2.69947504 2.78422793 1.17794259 0 0 Z " fill="#438192" transform="translate(112,53)"/>
<path d="M0 0 C0.33 0.99 0.66 1.98 1 3 C-4.625 5.125 -4.625 5.125 -8 4 C-2.25 0 -2.25 0 0 0 Z " fill="#819D49" transform="translate(131,115)"/>
<path d="M0 0 C2 1.1875 2 1.1875 4 3 C4.25 5.6875 4.25 5.6875 4 8 C3.34 8 2.68 8 2 8 C-0.1519437 4.77208445 -0.20086443 3.71599191 0 0 Z " fill="#8BA648" transform="translate(54,94)"/>
<path d="M0 0 C1.65 0.33 3.3 0.66 5 1 C4.67 1.99 4.34 2.98 4 4 C2.02 4 0.04 4 -2 4 C-1.34 2.68 -0.68 1.36 0 0 Z " fill="#191919" transform="translate(275,72)"/>
<path d="M0 0 C2.00720923 0.28674418 4.0085944 0.61866701 6 1 C5.34 2.65 4.68 4.3 4 6 C2.0625 5.1875 2.0625 5.1875 0 4 C-0.33 3.01 -0.66 2.02 -1 1 C-0.67 0.67 -0.34 0.34 0 0 Z " fill="#101010" transform="translate(243,63)"/>
<path d="M0 0 C2.625 -0.1875 2.625 -0.1875 5 0 C4.67 1.32 4.34 2.64 4 4 C1.03 3.505 1.03 3.505 -2 3 C-1.34 2.01 -0.68 1.02 0 0 Z " fill="#1F2020" transform="translate(222,72)"/>
<path d="M0 0 C2 1 2 1 4 3 C4.125 5.625 4.125 5.625 4 8 C3.67 7.01 3.34 6.02 3 5 C0.98491642 4.26676204 0.98491642 4.26676204 -1 4 C-0.67 2.68 -0.34 1.36 0 0 Z " fill="#111111" transform="translate(235,63)"/>
<path d="M0 0 C0.33 0 0.66 0 1 0 C1.66 2.97 2.32 5.94 3 9 C2.01 9 1.02 9 0 9 C-1.36623674 6.26752652 -1.128426 4.01801098 -1 1 C-0.67 0.67 -0.34 0.34 0 0 Z " fill="#67C2D2" transform="translate(90,56)"/>
<path d="M0 0 C-0.99 1.485 -0.99 1.485 -2 3 C-3.9453125 3.29296875 -3.9453125 3.29296875 -6.125 3.1875 C-7.40375 3.125625 -8.6825 3.06375 -10 3 C-6.88378718 -0.11621282 -4.21175599 -0.11383124 0 0 Z " fill="#090D0E" transform="translate(202,42)"/>
<path d="M0 0 C1.4540625 0.0309375 1.4540625 0.0309375 2.9375 0.0625 C1.625 2.0625 1.625 2.0625 -0.0625 4.0625 C-1.0525 4.0625 -2.0425 4.0625 -3.0625 4.0625 C-3.3925 3.0725 -3.7225 2.0825 -4.0625 1.0625 C-3.0625 0.0625 -3.0625 0.0625 0 0 Z " fill="#648B3E" transform="translate(145.0625,101.9375)"/>
<path d="M0 0 C0.99 0 1.98 0 3 0 C3 1.32 3 2.64 3 4 C1.02 4.33 -0.96 4.66 -3 5 C-1.6875 2.5 -1.6875 2.5 0 0 Z " fill="#5A8C81" transform="translate(149,91)"/>
<path d="M0 0 C1.98 0 3.96 0 6 0 C5.67 1.65 5.34 3.3 5 5 C3.0625 4.1875 3.0625 4.1875 1 3 C0.67 2.01 0.34 1.02 0 0 Z " fill="#101010" transform="translate(412,75)"/>
<path d="M0 0 C2.64 0.33 5.28 0.66 8 1 C8 2.32 8 3.64 8 5 C6.0625 4.625 6.0625 4.625 4 4 C3.67 3.34 3.34 2.68 3 2 C2.01 1.34 1.02 0.68 0 0 Z " fill="#101010" transform="translate(218,75)"/>
<path d="M0 0 C0.33 1.32 0.66 2.64 1 4 C-3 4 -3 4 -5 3 C-5 2.34 -5 1.68 -5 1 C-2 0 -2 0 0 0 Z " fill="#0D0D0D" transform="translate(375,73)"/>
<path d="M0 0 C-0.33 2.31 -0.66 4.62 -1 7 C-2.32 6.34 -3.64 5.68 -5 5 C-2.74193548 0 -2.74193548 0 0 0 Z " fill="#1F2323" transform="translate(104,59)"/>
<path d="M0 0 C1.65 0 3.3 0 5 0 C5.33 0.99 5.66 1.98 6 3 C3.69 3 1.38 3 -1 3 C-0.67 2.01 -0.34 1.02 0 0 Z " fill="#89A955" transform="translate(108,114)"/>
<path d="M0 0 C1.65 0 3.3 0 5 0 C4.34 1.32 3.68 2.64 3 4 C1.68 3.67 0.36 3.34 -1 3 C-0.67 2.01 -0.34 1.02 0 0 Z " fill="#1A1A1A" transform="translate(362,54)"/>
<path d="M0 0 C1.98 0.66 3.96 1.32 6 2 C5.01 3.485 5.01 3.485 4 5 C2.68 4.67 1.36 4.34 0 4 C0 2.68 0 1.36 0 0 Z " fill="#102528" transform="translate(70,42)"/>
<path d="" fill="#000000" transform="translate(0,0)"/>
<path d="" fill="#000000" transform="translate(0,0)"/>
<path d="" fill="#000000" transform="translate(0,0)"/>
<path d="" fill="#000000" transform="translate(0,0)"/>
<path d="" fill="#000000" transform="translate(0,0)"/>
<path d="" fill="#000000" transform="translate(0,0)"/>
</svg>
