<?xml version="1.0" encoding="UTF-8"?>
<svg version="1.1" xmlns="http://www.w3.org/2000/svg" width="136" height="122">
<path d="M0 0 C4.241334 3.4504295 7.05907288 7.5551288 9.6875 12.3125 C10.02910156 12.92738281 10.37070313 13.54226562 10.72265625 14.17578125 C13.95063495 21.18725126 13.84878762 29.86983043 11.92578125 37.2265625 C8.15023861 47.10565035 1.99655754 54.89929695 -7.5625 59.6875 C-17.09834776 63.46585477 -26.82140103 62.92253073 -36.3125 59.3125 C-46.43580429 54.1653207 -51.83215987 46.96769516 -55.3125 36.3125 C-57.98103402 27.27506479 -56.35798412 18.64442185 -52.3125 10.3125 C-47.82046364 2.09395117 -40.40429285 -2.51877342 -31.9375 -6.125 C-20.18854669 -7.94811344 -9.96495547 -6.7754148 0 0 Z M-39.6875 13 C-41.55804965 15.19087691 -41.55804965 15.19087691 -41.3125 17.875 C-40.09627149 20.839557 -39.17681051 21.88034475 -36.3125 23.3125 C-32.94213689 23.07175978 -31.72451979 22.72451979 -29.3125 20.3125 C-28.978772 17.17545684 -28.78400972 15.14695834 -30.5 12.4375 C-34.01138758 10.25801806 -36.38774942 10.65544038 -39.6875 13 Z " fill="#44ACCA" transform="translate(89.3125,35.6875)"/>
<path d="M0 0 C13.53370904 10.55926749 22.29218609 23.98529882 25.21875 41.03125 C25.21875 42.35125 25.21875 43.67125 25.21875 45.03125 C22.09424468 45.22770093 18.96913555 45.41188489 15.84375 45.59375 C14.50957031 45.67786133 14.50957031 45.67786133 13.1484375 45.76367188 C11.87226563 45.83618164 11.87226563 45.83618164 10.5703125 45.91015625 C9.78479004 45.9572876 8.99926758 46.00441895 8.18994141 46.05297852 C6.21875 46.03125 6.21875 46.03125 4.21875 45.03125 C3.70600304 42.73426218 3.2845086 40.41667551 2.90625 38.09375 C0.61262728 25.64076248 -4.96168573 15.94572935 -15.234375 8.17578125 C-26.55269705 0.96835919 -39.03559783 -0.96294703 -52.16015625 1.72265625 C-63.29308315 5.12082934 -73.72016731 11.98280371 -79.61328125 22.2109375 C-81.07662669 25.12392022 -82.46851207 28.04775471 -83.78125 31.03125 C-84.44125 31.03125 -85.10125 31.03125 -85.78125 31.03125 C-84.63977904 19.67433635 -78.44098102 8.4743246 -69.78125 1.03125 C-48.29540828 -14.4363775 -21.96788307 -15.55029925 0 0 Z " fill="#050506" transform="translate(108.78125,19.96875)"/>
<path d="M0 0 C0.22042969 1.54107422 0.22042969 1.54107422 0.4453125 3.11328125 C2.55302195 16.6140589 6.85933118 27.33866012 18 36 C29.7363358 43.49463202 41.99757382 46.54274129 55.8359375 43.8828125 C67.38937706 40.65926023 77.12692877 34.11875474 83.375 23.8125 C84.2586768 22.21309667 85.13384035 20.60895716 86 19 C86.96482757 17.31272837 87.95706718 15.64014295 89 14 C89.33 14 89.66 14 90 14 C89.47048478 25.64933494 82.14783001 35.22694241 74 43 C62.94789412 52.65758405 49.92745809 56.71837314 35.25 56.27734375 C19.09406721 54.89865237 4.275338 47.45374613 -6.44140625 35.2109375 C-14.64046115 24.75612945 -19.17694953 14.20781466 -21 1 C-19.03801051 -0.96198949 -15.43686389 -0.45295975 -12.75 -0.625 C-12.08097656 -0.6765625 -11.41195313 -0.728125 -10.72265625 -0.78125 C-6.9596957 -1.03260689 -3.65547091 -0.94928896 0 0 Z " fill="#7C9F2F" transform="translate(23,63)"/>
<path d="M0 0 C4.60647423 2.71927808 8.49630655 5.78501947 10.59765625 10.86328125 C10.68015625 11.58515625 10.76265625 12.30703125 10.84765625 13.05078125 C10.99203125 14.26765625 11.13640625 15.48453125 11.28515625 16.73828125 C11.22370456 22.20748174 8.28331682 26.00543511 4.84765625 30.05078125 C0.67891607 33.75632808 -4.70905341 34.33189014 -10.15234375 34.05078125 C-15.8122243 32.20777583 -20.55610758 27.86319736 -23.46484375 22.73828125 C-24.40053552 19.08057705 -24.28021044 15.82284874 -24.15234375 12.05078125 C-23.58644531 11.91800781 -23.02054688 11.78523438 -22.4375 11.6484375 C-21.33728516 11.38353516 -21.33728516 11.38353516 -20.21484375 11.11328125 C-19.48394531 10.93925781 -18.75304688 10.76523437 -18 10.5859375 C-16.15264477 10.21190556 -16.15264477 10.21190556 -15.15234375 9.05078125 C-15.23484375 7.93703125 -15.31734375 6.82328125 -15.40234375 5.67578125 C-15.15234375 2.05078125 -15.15234375 2.05078125 -13.15234375 0.11328125 C-8.46602451 -1.54645681 -4.56257766 -2.01217127 0 0 Z " fill="#050708" transform="translate(74.15234375,46.94921875)"/>
<path d="M0 0 C0.33 0 0.66 0 1 0 C0.47048478 11.64933494 -6.85216999 21.22694241 -15 29 C-26.41378637 38.97362877 -39.27219753 42.35596994 -54.3203125 42.30078125 C-57 42 -57 42 -60 40 C-58.73285156 39.95101562 -57.46570312 39.90203125 -56.16015625 39.8515625 C-54.46091904 39.77645809 -52.76170124 39.70091368 -51.0625 39.625 C-50.23169922 39.5940625 -49.40089844 39.563125 -48.54492188 39.53125 C-41.70808254 39.21202015 -34.80366835 38.86911223 -29 35 C-28.67 34.01 -28.34 33.02 -28 32 C-28.89138672 32.10828125 -28.89138672 32.10828125 -29.80078125 32.21875 C-42.73298941 33.66683552 -53.84681605 33.08110933 -66 28 C-66.7425 27.690625 -67.485 27.38125 -68.25 27.0625 C-70 26 -70 26 -71 23 C-68.67027772 23.90182798 -66.37702021 24.80509972 -64.15625 25.953125 C-53.42258557 31.31995722 -41.52041249 32.21433731 -30 29 C-17.35425007 24.22271669 -9.33526923 16.76824253 -3 5 C-2.03517243 3.31272837 -1.04293282 1.64014295 0 0 Z " fill="#85A53A" transform="translate(112,77)"/>
<path d="M0 0 C-2.79189666 1.42767443 -5.61603038 2.70786227 -8.5 3.9375 C-11.67785616 5.33074728 -14.28079451 6.82463561 -17 9 C-17.66 9 -18.32 9 -19 9 C-19.1546875 9.8971875 -19.1546875 9.8971875 -19.3125 10.8125 C-20 13 -20 13 -21.375 14.3125 C-26.55979957 19.69671494 -27.25080804 27.49398382 -27.15625 34.59765625 C-26.5720713 43.57940382 -23.60545408 51.66763963 -17 58 C-8.41646144 64.55963052 0.35609482 65.96988856 11 65 C19.45447182 63.24235981 25.02306081 59.08024432 31 53 C31 56 31 56 29.56640625 57.68359375 C21.1854753 65.01895047 13.27720334 68.33916401 2 68 C-8.45554728 66.63737228 -17.0790339 62.27729521 -23.71875 53.99609375 C-29.00876197 45.75464217 -30.8899735 36.65182527 -30 27 C-27.5932628 16.85044542 -23.04242858 9.74040869 -14.3125 4.0625 C-9.29331453 1.01488946 -5.89900358 -0.13108897 0 0 Z " fill="#56B3CF" transform="translate(63,30)"/>
<path d="M0 0 C0.33 0 0.66 0 1 0 C0.51643524 5.68188598 -0.7615578 11.2091617 -4 16 C-6.07421875 16.6328125 -6.07421875 16.6328125 -8 17 C-8.33 17.66 -8.66 18.32 -9 19 C-9.66 19 -10.32 19 -11 19 C-11.495 20.485 -11.495 20.485 -12 22 C-12.99 22 -13.98 22 -15 22 C-15 22.66 -15 23.32 -15 24 C-29.80213395 31.87481948 -41.49079388 35.32994988 -58.2734375 30.8515625 C-60.91646079 30.02609104 -63.44630217 29.0676723 -66 28 C-66.7425 27.690625 -67.485 27.38125 -68.25 27.0625 C-70 26 -70 26 -71 23 C-68.67027772 23.90182798 -66.37702021 24.80509972 -64.15625 25.953125 C-53.42258557 31.31995722 -41.52041249 32.21433731 -30 29 C-17.35425007 24.22271669 -9.33526923 16.76824253 -3 5 C-2.03517243 3.31272837 -1.04293282 1.64014295 0 0 Z " fill="#91AE45" transform="translate(112,77)"/>
<path d="M0 0 C0 3.10551666 -0.5393715 4.35261084 -2 7 C-1.34 7 -0.68 7 0 7 C-2.66666667 12.33333333 -5.33333333 17.66666667 -8 23 C-8.66 23 -9.32 23 -10 23 C-9.49691799 17.63149471 -8.08640159 13.4731464 -5.5625 8.6875 C-5.09360352 7.7584082 -5.09360352 7.7584082 -4.61523438 6.81054688 C-3.27457363 4.20008484 -2.08716571 2.08716571 0 0 Z " fill="#161418" transform="translate(33,28)"/>
<path d="M0 0 C-2.79189666 1.42767443 -5.61603038 2.70786227 -8.5 3.9375 C-11.67785616 5.33074728 -14.28079451 6.82463561 -17 9 C-17.66 9 -18.32 9 -19 9 C-19.0825 9.598125 -19.165 10.19625 -19.25 10.8125 C-20.20455872 13.5966296 -21.57132271 14.43311142 -24 16 C-23.52011774 11.6810597 -21.181105 9.78346687 -18 7 C-11.9039036 2.57230893 -7.72018897 -0.17155975 0 0 Z " fill="#5CAEC6" transform="translate(63,30)"/>
<path d="M0 0 C1.66666667 1.66666667 3.33333333 3.33333333 5 5 C5.8971875 5.8353125 5.8971875 5.8353125 6.8125 6.6875 C8 8 8 8 8 10 C8.721875 10.226875 9.44375 10.45375 10.1875 10.6875 C13.58457087 12.27279974 15.5749552 14.15923323 18 17 C18 17.99 18 18.98 18 20 C11.09880117 14.72114448 4.6255342 9.4671593 0 2 C0 1.34 0 0.68 0 0 Z " fill="#849C3F" transform="translate(12,90)"/>
<path d="M0 0 C-1.45537568 0.83848804 -2.91440373 1.67063934 -4.375 2.5 C-5.59316406 3.19609375 -5.59316406 3.19609375 -6.8359375 3.90625 C-9 5 -9 5 -11 5 C-11 5.66 -11 6.32 -11 7 C-12.96875 8.5078125 -12.96875 8.5078125 -15.5 10.125 C-16.3353125 10.66382813 -17.170625 11.20265625 -18.03125 11.7578125 C-18.6809375 12.16773438 -19.330625 12.57765625 -20 13 C-17.41212813 6.90470788 -6.64552355 -2.21517452 0 0 Z " fill="#1B1B1C" transform="translate(55,14)"/>
<path d="M0 0 C6.69604334 -0.7278308 11.33182394 1.52023278 17 5 C19.625 7.3125 19.625 7.3125 21 9 C17.90198124 8.39133848 15.87947505 7.37606519 13.3125 5.5625 C9.06748378 2.79644423 4.96505753 1.77004364 0 1 C0 0.67 0 0.34 0 0 Z " fill="#5CABC9" transform="translate(71,30)"/>
<path d="M0 0 C0.33 0.66 0.66 1.32 1 2 C1.7425 2.28875 2.485 2.5775 3.25 2.875 C6.40478956 4.16559573 8.52458072 5.66210402 11 8 C11.640625 10.1328125 11.640625 10.1328125 12 12 C9.33333333 10 6.66666667 8 4 6 C3.25234375 5.50113281 2.5046875 5.00226562 1.734375 4.48828125 C1.16203125 3.99714844 0.5896875 3.50601562 0 3 C0 2.01 0 1.02 0 0 Z " fill="#0B0B0E" transform="translate(90,23)"/>
<path d="M0 0 C2 0 2 0 3.62109375 1.609375 C4.22050781 2.31578125 4.81992187 3.0221875 5.4375 3.75 C6.33275391 4.79414062 6.33275391 4.79414062 7.24609375 5.859375 C8.89081098 7.86673589 10.46126108 9.91070312 12 12 C7.29269759 11.32752823 5.20435588 8.47199052 2.3125 4.9375 C1 3 1 3 0 0 Z " fill="#8AA33C" transform="translate(29,88)"/>
<path d="M0 0 C0 3.10551666 -0.5393715 4.35261084 -2 7 C-1.34 7 -0.68 7 0 7 C-0.33 7.99 -0.66 8.98 -1 10 C-2.65 10.33 -4.3 10.66 -6 11 C-4.74194623 6.49197399 -3.09592835 3.5087188 0 0 Z " fill="#1A1919" transform="translate(33,28)"/>
<path d="M0 0 C0.66 0.66 1.32 1.32 2 2 C0.02 4.97 0.02 4.97 -2 8 C-3.32 7.67 -4.64 7.34 -6 7 C-5.34 6.01 -4.68 5.02 -4 4 C-3.34 4 -2.68 4 -2 4 C-1.34 2.68 -0.68 1.36 0 0 Z " fill="#799C21" transform="translate(105,92)"/>
<path d="M0 0 C0.66 0 1.32 0 2 0 C2 3.96 2 7.92 2 12 C-1 9 -1 9 -1.07421875 6.73828125 C-0.94660156 5.93777344 -0.81898437 5.13726562 -0.6875 4.3125 C-0.56761719 3.50425781 -0.44773437 2.69601563 -0.32421875 1.86328125 C-0.21722656 1.24839844 -0.11023438 0.63351563 0 0 Z " fill="#4FB0C4" transform="translate(85,59)"/>
<path d="M0 0 C0.66 0.66 1.32 1.32 2 2 C1.6730244 4.61580479 1.17960932 6.64078137 0 9 C-0.66 9 -1.32 9 -2 9 C-1.125 2.25 -1.125 2.25 0 0 Z " fill="#2C4254" transform="translate(25,42)"/>
<path d="M0 0 C0.99 0.33 1.98 0.66 3 1 C0.88229834 3.32947183 -1.03335588 4.88750845 -4 6 C-4.99 5.67 -5.98 5.34 -7 5 C-2.25 2 -2.25 2 0 2 C0 1.34 0 0.68 0 0 Z " fill="#80A827" transform="translate(97,99)"/>
</svg>
